<svg width="97" height="24" viewBox="0 0 97 24" fill="none" xmlns="http://www.w3.org/2000/svg">
<path d="M0 19.1091H2.93987V11.3586H7.96436C11.5724 11.3586 14.2183 9.70156 14.2183 5.69265C14.2183 1.68374 11.5724 0 7.96436 0H0V19.1091ZM2.93987 8.8196V2.53898H7.83073C10.049 2.53898 11.1715 3.52784 11.1715 5.69265C11.1715 7.83073 10.049 8.8196 7.83073 8.8196H2.93987Z" fill="black"/>
<path d="M21.3443 19.51C24.9256 19.51 26.9301 17.5323 27.6517 14.9131H24.979C24.7385 15.8218 23.8031 17.3719 21.3978 17.3719C18.6984 17.3719 17.3621 15.2606 17.3087 12.9889H27.7853C27.812 12.7751 27.812 12.3742 27.812 12C27.812 7.77728 25.4868 5.05122 21.3443 5.05122C17.175 5.05122 14.6093 7.99109 14.6093 12.2673C14.6093 16.4365 17.0147 19.51 21.3443 19.51ZM17.3087 10.931C17.469 8.68597 19.0726 7.18931 21.2641 7.18931C23.5893 7.18931 25.086 8.79287 25.086 10.931H17.3087Z" fill="black"/>
<path d="M35.6102 24C39.5122 24 41.9977 22.1559 41.9977 18.0401V5.47884H39.3785V7.0824H39.3251C38.5768 6.12027 37.3206 5.07795 35.1291 5.07795C31.7349 5.07795 29.1157 7.37639 29.1157 11.7595C29.1157 16.1158 31.7349 18.4143 35.1291 18.4143C37.3206 18.4143 38.5768 17.4521 39.3251 16.3563H39.3785V18.2004C39.3785 20.7661 38.0957 21.8619 35.6102 21.8619C33.3919 21.8619 32.4832 20.8998 32.216 19.6704H29.4899C29.7572 22.1292 31.7082 24 35.6102 24ZM31.8418 11.7595C31.8418 9.19376 33.0445 7.26949 35.6102 7.26949C37.9621 7.26949 39.3518 8.76615 39.3518 11.7595C39.3518 14.7261 37.9621 16.2494 35.6102 16.2494C33.0445 16.2494 31.8418 14.3252 31.8418 11.7595Z" fill="black"/>
<path d="M48.4222 19.4833C50.6404 19.4833 52.1906 18.6013 53.0725 17.1849H53.126C53.2863 18.735 53.9812 19.2428 55.2908 19.2428C55.7184 19.2428 56.1727 19.1893 56.6271 19.0824V17.4788C56.4667 17.5056 56.3865 17.5056 56.3064 17.5056C55.7986 17.5056 55.6649 16.9978 55.6649 16.0089V9.75501C55.6649 6.22717 53.42 5.05122 50.6137 5.05122C46.4445 5.05122 44.734 7.10913 44.6004 9.72828H47.273C47.4066 7.91091 48.1282 7.16258 50.5068 7.16258C52.5113 7.16258 53.0992 7.99109 53.0992 8.97995C53.0992 10.3163 51.7897 10.5835 49.6516 10.9844C46.2574 11.6258 43.9589 12.5345 43.9589 15.5813C43.9589 17.9065 45.6961 19.4833 48.4222 19.4833ZM46.685 15.3942C46.685 13.9777 47.7006 13.3096 50.1059 12.8285C51.4957 12.5345 52.6716 12.2405 53.0992 11.8396V13.7906C53.0992 16.1693 51.362 17.3719 49.0102 17.3719C47.3799 17.3719 46.685 16.6771 46.685 15.3942Z" fill="black"/>
<path d="M63.9567 19.4833C67.538 19.4833 69.5692 17.8797 69.5692 15.2339C69.5692 12.1871 66.8431 11.4655 64.3309 10.8775C62.4066 10.4499 60.8832 10.3163 60.8832 8.89978C60.8832 7.88419 61.6315 7.18931 63.3955 7.18931C65.6672 7.18931 66.2284 8.39198 66.4155 9.4343H69.0614C68.8743 7.08241 67.0837 5.07795 63.342 5.07795C60.0547 5.07795 58.1572 6.65479 58.1572 9.00668C58.1572 11.8396 60.8832 12.5345 63.2618 13.0958C65.0257 13.4699 66.8431 13.657 66.8431 15.3675C66.8431 16.3563 66.2284 17.3719 63.93 17.3719C61.391 17.3719 60.4289 16.1425 60.322 14.5657H57.6761C57.7563 17.3452 59.8142 19.4833 63.9567 19.4833Z" fill="black"/>
<path d="M77.4609 19.51C81.7103 19.51 84.276 16.5434 84.276 12.2673C84.276 8.01782 81.7103 5.05122 77.4876 5.05122C73.2114 5.05122 70.6457 8.04454 70.6457 12.294C70.6457 16.5702 73.2114 19.51 77.4609 19.51ZM73.3718 12.294C73.3718 9.4343 74.6546 7.24276 77.4876 7.24276C80.2671 7.24276 81.55 9.4343 81.55 12.294C81.55 15.1269 80.2671 17.3452 77.4876 17.3452C74.6546 17.3452 73.3718 15.1269 73.3718 12.294Z" fill="black"/>
<path d="M91.3883 1.51465H92.1307V8.19616H91.3883V1.51465Z" fill="#0F172A"/>
<path d="M95.1002 4.48421L95.1002 5.2266L88.4187 5.2266L88.4187 4.48421L95.1002 4.48421Z" fill="#0F172A"/>
<path fill-rule="evenodd" clip-rule="evenodd" d="M87.8397 4.8554C87.8397 7.02026 89.5947 8.77523 91.7595 8.77523C93.9244 8.77523 95.6793 7.02026 95.6793 4.8554C95.6793 2.69055 93.9244 0.935583 91.7595 0.935583C89.5947 0.935583 87.8397 2.69055 87.8397 4.8554ZM91.7595 0.401062C89.2995 0.401062 87.3052 2.39534 87.3052 4.8554C87.3052 7.31547 89.2995 9.30975 91.7595 9.30975C94.2196 9.30975 96.2139 7.31547 96.2139 4.8554C96.2139 2.39534 94.2196 0.401062 91.7595 0.401062Z" fill="black"/>
</svg>
