<svg width="40" height="40" viewBox="0 0 40 40" fill="none" xmlns="http://www.w3.org/2000/svg">
<g>
<path d="M7.9165 26.6667L12.4935 20.8445C13.7913 19.1935 16.2741 19.1395 17.6425 20.7325L21.6665 25.4167M18.1915 21.3717C19.9202 19.1728 22.3287 16.0576 22.4855 15.8549C22.491 15.8477 22.4963 15.8408 22.502 15.8336C23.8023 14.1933 26.277 14.143 27.6425 15.7325L31.6665 20.4167M11.2498 32.0833H28.7498C30.5908 32.0833 32.0832 30.591 32.0832 28.75V11.25C32.0832 9.40905 30.5908 7.91667 28.7498 7.91667H11.2498C9.40889 7.91667 7.9165 9.40905 7.9165 11.25V28.75C7.9165 30.591 9.40889 32.0833 11.2498 32.0833Z" stroke="currentColor" stroke-width="2" stroke-linecap="round" stroke-linejoin="round"/>
</g>
</svg>
