<svg width="20" height="20" viewBox="0 0 20 20" fill="none" xmlns="http://www.w3.org/2000/svg">
  <path d="M7.49996 5.625H6.45829C5.53782 5.625 4.79163 6.37119 4.79163 7.29167V14.375C4.79163 15.2955 5.53782 16.0417 6.45829 16.0417H13.5416C14.4621 16.0417 15.2083 15.2955 15.2083 14.375V7.29167C15.2083 6.37119 14.4621 5.625 13.5416 5.625H12.5" stroke="currentColor" stroke-width="1.5" stroke-linecap="round" stroke-linejoin="round"/>
  <path d="M11.6667 6.875H8.33333C7.8731 6.875 7.5 6.5019 7.5 6.04167V4.79167C7.5 4.33143 7.8731 3.95833 8.33333 3.95833H11.6667C12.1269 3.95833 12.5 4.33143 12.5 4.79167V6.04167C12.5 6.5019 12.1269 6.875 11.6667 6.875Z" stroke="currentColor" stroke-width="1.5" stroke-linecap="round" stroke-linejoin="round"/>
  <path d="M8.125 10.2083H11.875" stroke="currentColor" stroke-width="1.5" stroke-linecap="round" stroke-linejoin="round"/>
  <path d="M8.125 12.7083H11.875" stroke="currentColor" stroke-width="1.5" stroke-linecap="round" stroke-linejoin="round"/>
</svg>